<svg xmlns="http://www.w3.org/2000/svg" viewBox="0 0 32 32" fill="none">
  <!-- Brain/neuron icon representing NeuroLearn -->
  <rect width="32" height="32" rx="8" fill="#6366f1"/>
  <!-- Left hemisphere -->
  <path d="M8 16c0-4.4 3.1-8 7-8.5V8c-4.9.6-8.5 4.7-8.5 9s3.6 8.4 8.5 9v-.5C11.1 25 8 21.4 8 17v-1z" fill="white" opacity="0.9"/>
  <!-- Right hemisphere -->
  <path d="M24 16c0-4.4-3.1-8-7-8.5V8c4.9.6 8.5 4.7 8.5 9s-3.6 8.4-8.5 9v-.5c3.9-.5 7-4.1 7-7.5v-1z" fill="white" opacity="0.9"/>
  <!-- Center line -->
  <line x1="16" y1="7.5" x2="16" y2="24.5" stroke="white" stroke-width="1" opacity="0.6"/>
  <!-- Neural nodes -->
  <circle cx="11" cy="13" r="1.5" fill="white"/>
  <circle cx="21" cy="13" r="1.5" fill="white"/>
  <circle cx="11" cy="19" r="1.5" fill="white"/>
  <circle cx="21" cy="19" r="1.5" fill="white"/>
  <circle cx="16" cy="16" r="2" fill="white"/>
  <!-- Synaptic connections -->
  <line x1="11" y1="13" x2="16" y2="16" stroke="white" stroke-width="0.75" opacity="0.7"/>
  <line x1="21" y1="13" x2="16" y2="16" stroke="white" stroke-width="0.75" opacity="0.7"/>
  <line x1="11" y1="19" x2="16" y2="16" stroke="white" stroke-width="0.75" opacity="0.7"/>
  <line x1="21" y1="19" x2="16" y2="16" stroke="white" stroke-width="0.75" opacity="0.7"/>
</svg>
